ffprobe version N-86175-g64ea4d1 Copyright (c) 2007-2017 the FFmpeg developers
  built with gcc 6.3.0 (GCC)
  configuration: --enable-gpl --enable-version3 --enable-cuda --enable-cuvid --enable-d3d11va --enable-dxva2 --enable-libmfx --enable-nvenc --enable-avisynth --enable-bzlib --enable-fontconfig --enable-frei0r --enable-gnutls --enable-iconv --enable-libass --enable-libbluray --enable-libbs2b --enable-libcaca --enable-libfreetype --enable-libgme --enable-libgsm --enable-libilbc --enable-libmodplug --enable-libmp3lame --enable-libopencore-amrnb --enable-libopencore-amrwb --enable-libopenh264 --enable-libopenjpeg --enable-libopus --enable-librtmp --enable-libsnappy --enable-libsoxr --enable-libspeex --enable-libtheora --enable-libtwolame --enable-libvidstab --enable-libvo-amrwbenc --enable-libvorbis --enable-libvpx --enable-libwavpack --enable-libwebp --enable-libx264 --enable-libx265 --enable-libxavs --enable-libxvid --enable-libzimg --enable-lzma --enable-zlib
  libavutil      55. 63.100 / 55. 63.100
  libavcodec     57. 96.101 / 57. 96.101
  libavformat    57. 72.101 / 57. 72.101
  libavdevice    57.  7.100 / 57.  7.100
  libavfilter     6. 90.100 /  6. 90.100
  libswscale      4.  7.101 /  4.  7.101
  libswresample   2.  8.100 /  2.  8.100
  libpostproc    54.  6.100 / 54.  6.100
Input #0, matroska,webm, from 'Office Christmas Party (2016).mkv':
  Metadata:
    encoder         : libebml v1.3.1 + libmatroska v1.4.2
    creation_time   : 2017-05-03T19:11:11.000000Z
  Duration: 01:50:47.61, start: 0.000000, bitrate: 14151 kb/s
    Chapter #0:0: start 0.000000, end 502.252000
    Metadata:
      title           : 00:00:00.000
    Chapter #0:1: start 502.252000, end 806.764000
    Metadata:
      title           : 00:08:22.252
    Chapter #0:2: start 806.764000, end 1406.280000
    Metadata:
      title           : 00:13:26.764
    Chapter #0:3: start 1406.280000, end 1793.291000
    Metadata:
      title           : 00:23:26.280
    Chapter #0:4: start 1793.291000, end 1988.612000
    Metadata:
      title           : 00:29:53.291
    Chapter #0:5: start 1988.612000, end 2568.691000
    Metadata:
      title           : 00:33:08.612
    Chapter #0:6: start 2568.691000, end 3191.688000
    Metadata:
      title           : 00:42:48.691
    Chapter #0:7: start 3191.688000, end 3504.000000
    Metadata:
      title           : 00:53:11.688
    Chapter #0:8: start 3504.000000, end 3821.151000
    Metadata:
      title           : 00:58:24.000
    Chapter #0:9: start 3821.151000, end 4135.423000
    Metadata:
      title           : 01:03:41.151
    Chapter #0:10: start 4135.423000, end 4486.982000
    Metadata:
      title           : 01:08:55.423
    Chapter #0:11: start 4486.982000, end 4826.864000
    Metadata:
      title           : 01:14:46.982
    Chapter #0:12: start 4826.864000, end 5175.795000
    Metadata:
      title           : 01:20:26.864
    Chapter #0:13: start 5175.795000, end 5501.788000
    Metadata:
      title           : 01:26:15.795
    Chapter #0:14: start 5501.788000, end 6017.428000
    Metadata:
      title           : 01:31:41.788
    Chapter #0:15: start 6017.428000, end 6286.238000
    Metadata:
      title           : 01:40:17.428
    Chapter #0:16: start 6286.238000, end 6647.606000
    Metadata:
      title           : 01:44:46.238
    Stream #0:0(eng): Video: h264 (High), yuv420p(tv, bt709/unknown/unknown, progressive), 1920x804 [SAR 1:1 DAR 160:67], 23.98 fps, 23.98 tbr, 1k tbn, 47.95 tbc
    Metadata:
      BPS             : 12191830
      BPS-eng         : 12191830
      DURATION        : 01:50:47.600000000
      DURATION-eng    : 01:50:47.600000000
      NUMBER_OF_FRAMES: 159383
      NUMBER_OF_FRAMES-eng: 159383
      NUMBER_OF_BYTES : 10130801316
      NUMBER_OF_BYTES-eng: 10130801316
      _STATISTICS_WRITING_APP: mkvmerge v8.3.0 ('Over the Horizon') 64bit
      _STATISTICS_WRITING_APP-eng: mkvmerge v8.3.0 ('Over the Horizon') 64bit
      _STATISTICS_WRITING_DATE_UTC: 2017-05-03 19:11:11
      _STATISTICS_WRITING_DATE_UTC-eng: 2017-05-03 19:11:11
      _STATISTICS_TAGS: BPS DURATION NUMBER_OF_FRAMES NUMBER_OF_BYTES
      _STATISTICS_TAGS-eng: BPS DURATION NUMBER_OF_FRAMES NUMBER_OF_BYTES
    Stream #0:1(hun): Audio: ac3, 48000 Hz, 5.1(side), fltp, 448 kb/s (default)
    Metadata:
      title           : DD 5.1 @ 448 kbps
      BPS             : 448000
      BPS-eng         : 448000
      DURATION        : 01:50:41.120000000
      DURATION-eng    : 01:50:41.120000000
      NUMBER_OF_FRAMES: 207535
      NUMBER_OF_FRAMES-eng: 207535
      NUMBER_OF_BYTES : 371902720
      NUMBER_OF_BYTES-eng: 371902720
      _STATISTICS_WRITING_APP: mkvmerge v8.3.0 ('Over the Horizon') 64bit
      _STATISTICS_WRITING_APP-eng: mkvmerge v8.3.0 ('Over the Horizon') 64bit
      _STATISTICS_WRITING_DATE_UTC: 2017-05-03 19:11:11
      _STATISTICS_WRITING_DATE_UTC-eng: 2017-05-03 19:11:11
      _STATISTICS_TAGS: BPS DURATION NUMBER_OF_FRAMES NUMBER_OF_BYTES
      _STATISTICS_TAGS-eng: BPS DURATION NUMBER_OF_FRAMES NUMBER_OF_BYTES
    Stream #0:2(eng): Audio: dts (DTS), 48000 Hz, 5.1(side), fltp, 1536 kb/s
    Metadata:
      title           : DTS 5.1 @ 1510 kbps
      BPS             : 1509000
      BPS-eng         : 1509000
      DURATION        : 01:50:47.595000000
      DURATION-eng    : 01:50:47.595000000
      NUMBER_OF_FRAMES: 623212
      NUMBER_OF_FRAMES-eng: 623212
      NUMBER_OF_BYTES : 1253902676
      NUMBER_OF_BYTES-eng: 1253902676
      _STATISTICS_WRITING_APP: mkvmerge v8.3.0 ('Over the Horizon') 64bit
      _STATISTICS_WRITING_APP-eng: mkvmerge v8.3.0 ('Over the Horizon') 64bit
      _STATISTICS_WRITING_DATE_UTC: 2017-05-03 19:11:11
      _STATISTICS_WRITING_DATE_UTC-eng: 2017-05-03 19:11:11
      _STATISTICS_TAGS: BPS DURATION NUMBER_OF_FRAMES NUMBER_OF_BYTES
      _STATISTICS_TAGS-eng: BPS DURATION NUMBER_OF_FRAMES NUMBER_OF_BYTES
    Stream #0:3(hun): Subtitle: subrip
    Metadata:
      title           : Forced
      BPS             : 6
      BPS-eng         : 6
      DURATION        : 01:32:45.226000000
      DURATION-eng    : 01:32:45.226000000
      NUMBER_OF_FRAMES: 130
      NUMBER_OF_FRAMES-eng: 130
      NUMBER_OF_BYTES : 4735
      NUMBER_OF_BYTES-eng: 4735
      _STATISTICS_WRITING_APP: mkvmerge v8.3.0 ('Over the Horizon') 64bit
      _STATISTICS_WRITING_APP-eng: mkvmerge v8.3.0 ('Over the Horizon') 64bit
      _STATISTICS_WRITING_DATE_UTC: 2017-05-03 19:11:11
      _STATISTICS_WRITING_DATE_UTC-eng: 2017-05-03 19:11:11
      _STATISTICS_TAGS: BPS DURATION NUMBER_OF_FRAMES NUMBER_OF_BYTES
      _STATISTICS_TAGS-eng: BPS DURATION NUMBER_OF_FRAMES NUMBER_OF_BYTES
    Stream #0:4(hun): Subtitle: subrip
    Metadata:
      BPS             : 91
      BPS-eng         : 91
      DURATION        : 01:46:48.667000000
      DURATION-eng    : 01:46:48.667000000
      NUMBER_OF_FRAMES: 1729
      NUMBER_OF_FRAMES-eng: 1729
      NUMBER_OF_BYTES : 72914
      NUMBER_OF_BYTES-eng: 72914
      _STATISTICS_WRITING_APP: mkvmerge v8.3.0 ('Over the Horizon') 64bit
      _STATISTICS_WRITING_APP-eng: mkvmerge v8.3.0 ('Over the Horizon') 64bit
      _STATISTICS_WRITING_DATE_UTC: 2017-05-03 19:11:11
      _STATISTICS_WRITING_DATE_UTC-eng: 2017-05-03 19:11:11
      _STATISTICS_TAGS: BPS DURATION NUMBER_OF_FRAMES NUMBER_OF_BYTES
      _STATISTICS_TAGS-eng: BPS DURATION NUMBER_OF_FRAMES NUMBER_OF_BYTES
    Stream #0:5(eng): Subtitle: subrip
    Metadata:
      BPS             : 95
      BPS-eng         : 95
      DURATION        : 01:46:25.586000000
      DURATION-eng    : 01:46:25.586000000
      NUMBER_OF_FRAMES: 2286
      NUMBER_OF_FRAMES-eng: 2286
      NUMBER_OF_BYTES : 76563
      NUMBER_OF_BYTES-eng: 76563
      _STATISTICS_WRITING_APP: mkvmerge v8.3.0 ('Over the Horizon') 64bit
      _STATISTICS_WRITING_APP-eng: mkvmerge v8.3.0 ('Over the Horizon') 64bit
      _STATISTICS_WRITING_DATE_UTC: 2017-05-03 19:11:11
      _STATISTICS_WRITING_DATE_UTC-eng: 2017-05-03 19:11:11
      _STATISTICS_TAGS: BPS DURATION NUMBER_OF_FRAMES NUMBER_OF_BYTES
      _STATISTICS_TAGS-eng: BPS DURATION NUMBER_OF_FRAMES NUMBER_OF_BYTES